<svg width="128" height="128" viewBox="0 0 128 128" fill="none" xmlns="http://www.w3.org/2000/svg">
<rect width="128" height="128" rx="12" fill="#232323"/>
<path d="M96 37L115.588 63.444C115.836 63.7785 115.851 64.2316 115.625 64.5814L96 95" stroke="white" stroke-width="5" stroke-linecap="round"/>
<path d="M45.2 81C44.88 81 44.592 80.888 44.336 80.664C44.112 80.44 44 80.152 44 79.8V69.48L32.864 48.936C32.832 48.84 32.8 48.76 32.768 48.696C32.736 48.6 32.72 48.504 32.72 48.408C32.72 48.152 32.816 47.928 33.008 47.736C33.232 47.512 33.488 47.4 33.776 47.4H39.776C40.256 47.4 40.624 47.528 40.88 47.784C41.168 48.008 41.344 48.216 41.408 48.408L48.32 60.792L55.232 48.408C55.328 48.216 55.504 48.008 55.76 47.784C56.048 47.528 56.432 47.4 56.912 47.4H62.912C63.2 47.4 63.44 47.512 63.632 47.736C63.824 47.928 63.92 48.152 63.92 48.408C63.92 48.504 63.904 48.6 63.872 48.696C63.872 48.76 63.856 48.84 63.824 48.936L52.64 69.48V79.8C52.64 80.152 52.528 80.44 52.304 80.664C52.08 80.888 51.792 81 51.44 81H45.2ZM62.2213 81C61.9653 81 61.7253 80.904 61.5013 80.712C61.3093 80.488 61.2133 80.248 61.2133 79.992C61.2133 79.832 61.2293 79.688 61.2613 79.56L72.5413 48.744C72.6373 48.392 72.8293 48.088 73.1172 47.832C73.4373 47.544 73.8693 47.4 74.4133 47.4H81.5173C82.0613 47.4 82.4773 47.544 82.7653 47.832C83.0853 48.088 83.2933 48.392 83.3893 48.744L94.6213 79.56C94.6853 79.688 94.7173 79.832 94.7173 79.992C94.7173 80.248 94.6053 80.488 94.3813 80.712C94.1893 80.904 93.9493 81 93.6613 81H87.7573C87.2773 81 86.9093 80.888 86.6533 80.664C86.4293 80.408 86.2853 80.184 86.2213 79.992L84.3493 75.096H71.5333L69.7093 79.992C69.6453 80.184 69.5013 80.408 69.2773 80.664C69.0533 80.888 68.6693 81 68.1253 81H62.2213ZM73.5013 68.184H82.4293L77.9173 55.512L73.5013 68.184Z" fill="white"/>
<path d="M31 37.5L11.4118 63.944C11.164 64.2785 11.1494 64.7316 11.3751 65.0814L31 95.5" stroke="white" stroke-width="5" stroke-linecap="round"/>
</svg>
